<svg width="24" height="24" viewBox="0 0 24 24" fill="none" xmlns="http://www.w3.org/2000/svg">
<path d="M12 0C5.33333 0 0 5.33333 0 12C0 18.6667 5.33333 24 12 24C18.6667 24 24 18.6667 24 12C24 5.33333 18.6667 0 12 0ZM13.2 20.5333C13.0667 20.6667 13.0667 20.8 12.9333 20.9333C12.6667 21.2 12.4 21.3333 12 21.3333C11.8667 21.3333 11.6 21.3333 11.4667 21.2C11.3333 21.0667 11.2 21.0667 11.0667 20.9333C10.9333 20.8 10.8 20.6667 10.8 20.5333C10.8 20.4 10.6667 20.1333 10.6667 20C10.6667 19.6 10.8 19.3333 11.0667 19.0667C11.2 18.9333 11.3333 18.8 11.4667 18.8C12 18.5333 12.5333 18.6667 12.9333 19.0667C13.2 19.3333 13.3333 19.6 13.3333 20C13.3333 20.1333 13.3333 20.4 13.2 20.5333ZM13.3333 13.3333V14.6667C13.3333 15.4667 12.8 16 12 16C11.2 16 10.6667 15.4667 10.6667 14.6667V12.4C10.6667 11.8667 11.0667 11.3333 11.6 11.0667C12.6667 10.8 14.6667 9.73333 14.6667 8.8C14.6667 7.86667 14 7.06667 12.9333 6.8C11.4667 6.4 9.73333 6.93333 9.33333 8.13333C8.93333 8.8 8.13333 9.2 7.46667 8.93333C6.8 8.66667 6.53333 7.86667 6.8 7.2C7.86667 4.66667 10.8 3.46667 13.6 4.26667C15.8667 4.93333 17.3333 6.8 17.3333 8.8C17.3333 11.3333 14.8 12.6667 13.3333 13.3333Z" fill="#177FAD"/>
</svg>
